<svg width="67" height="46" viewBox="0 0 67 46" fill="none" xmlns="http://www.w3.org/2000/svg">
<g filter="url(#filter0_d)">
<path d="M26.0817 19.2781C27.2963 18.6671 28.2147 17.9866 28.844 17.2512C29.9636 15.9267 30.516 14.1705 30.516 11.9936C30.516 9.87522 29.9636 8.06415 28.8586 6.54579C27.0146 4.0725 23.8937 2.80658 19.4813 2.74072H2V38.4242H18.2996C20.1362 38.4242 21.8375 38.2668 23.4108 37.9449C24.984 37.6192 26.3451 37.0229 27.4976 36.1521C28.522 35.3947 29.3782 34.4545 30.0587 33.3459C31.1343 31.6702 31.6722 29.7713 31.6722 27.6566C31.6722 25.6077 31.2002 23.8625 30.2636 22.4283C29.316 20.994 27.9256 19.944 26.0817 19.2781ZM9.21133 8.93858H17.0849C18.8155 8.93858 20.2423 9.12518 21.3619 9.49471C22.6571 10.0325 23.3047 11.1265 23.3047 12.7949C23.3047 14.2913 22.8108 15.3377 21.8339 15.9267C20.8497 16.5158 19.5728 16.8121 18.0069 16.8121H9.21133V8.93858ZM21.6619 31.6043C20.7912 32.0251 19.5655 32.2336 17.9959 32.2336H9.21133V22.7173H18.1166C19.6679 22.7283 20.8753 22.9332 21.7388 23.3173C23.2754 24.0125 24.0401 25.2857 24.0401 27.148C24.0401 29.3432 23.2498 30.8214 21.6619 31.6043Z" fill="#1D1D1D"/>
<path d="M54.9082 4.40674H39.4062V8.84842H54.9082V4.40674Z" fill="#1D1D1D"/>
<path d="M60.2937 21.934C59.9717 19.8669 59.262 18.0485 58.157 16.4789C56.946 14.7008 55.4093 13.3983 53.5397 12.575C51.6774 11.7482 49.581 11.3347 47.2467 11.3384C43.3283 11.3384 40.1452 12.5641 37.6829 14.9971C35.2279 17.4375 33.9985 20.9462 33.9985 25.5196C33.9985 30.3966 35.3559 33.92 38.0853 36.0823C40.8037 38.2482 43.9429 39.3276 47.5065 39.3276C51.8201 39.3276 55.1752 38.0434 57.5716 35.4823C59.1046 33.8651 59.9717 32.2736 60.162 30.7113H53.0202C52.6068 31.4833 52.1275 32.087 51.5787 32.526C50.5835 33.3309 49.2883 33.7334 47.7004 33.7334C46.1894 33.7334 44.9088 33.4005 43.8405 32.7382C42.077 31.6772 41.155 29.8186 41.0379 27.1733H60.5279C60.5571 24.8939 60.484 23.1414 60.2937 21.934ZM41.2135 22.6182C41.4696 20.9023 42.0916 19.5412 43.0795 18.5351C44.0673 17.5326 45.4649 17.0277 47.2541 17.024C48.9041 17.024 50.2835 17.496 51.4067 18.4436C52.5153 19.3986 53.1409 20.7852 53.269 22.6182H41.2135Z" fill="#1D1D1D"/>
</g>
<defs>
<filter id="filter0_d" x="0" y="0.740723" width="66.5341" height="44.5868" filterUnits="userSpaceOnUse" color-interpolation-filters="sRGB">
<feFlood flood-opacity="0" result="BackgroundImageFix"/>
<feColorMatrix in="SourceAlpha" type="matrix" values="0 0 0 0 0 0 0 0 0 0 0 0 0 0 0 0 0 0 127 0"/>
<feOffset dx="2" dy="2"/>
<feGaussianBlur stdDeviation="2"/>
<feColorMatrix type="matrix" values="0 0 0 0 0 0 0 0 0 0 0 0 0 0 0 0 0 0 0.04 0"/>
<feBlend mode="normal" in2="BackgroundImageFix" result="effect1_dropShadow"/>
<feBlend mode="normal" in="SourceGraphic" in2="effect1_dropShadow" result="shape"/>
</filter>
</defs>
</svg>
