<svg width="33" height="24" viewBox="0 0 33 24" fill="none" xmlns="http://www.w3.org/2000/svg">
<g filter="url(#filter0_d)">
<path d="M12.159 8.97638C12.6714 8.71863 13.0588 8.43155 13.3243 8.12131C13.7966 7.56258 14.0296 6.82173 14.0296 5.90338C14.0296 5.00972 13.7966 4.24572 13.3304 3.60519C12.5525 2.56182 11.236 2.02778 9.37459 2H2V17.0532H8.87606C9.65087 17.0532 10.3686 16.9869 11.0323 16.851C11.6959 16.7137 12.2701 16.4621 12.7563 16.0948C13.1884 15.7753 13.5496 15.3786 13.8367 14.9109C14.2905 14.204 14.5174 13.403 14.5174 12.5109C14.5174 11.6465 14.3183 10.9103 13.9231 10.3053C13.5234 9.70026 12.9369 9.25729 12.159 8.97638ZM5.04213 4.6146H8.36363C9.09368 4.6146 9.69563 4.69332 10.1679 4.8492C10.7143 5.07609 10.9875 5.53758 10.9875 6.24139C10.9875 6.87266 10.7791 7.31409 10.367 7.56258C9.95184 7.81108 9.41318 7.9361 8.75258 7.9361H5.04213V4.6146ZM10.2945 14.1763C9.92715 14.3538 9.41009 14.4417 8.74795 14.4417H5.04213V10.4272H8.79889C9.45331 10.4319 9.96264 10.5183 10.3269 10.6803C10.9751 10.9736 11.2977 11.5107 11.2977 12.2963C11.2977 13.2224 10.9643 13.846 10.2945 14.1763Z" fill="#1D1D1D"/>
<path d="M24.3196 2.70264H17.78V4.57638H24.3196V2.70264Z" fill="#1D1D1D"/>
<path d="M26.5915 10.0968C26.4557 9.22474 26.1563 8.45765 25.6902 7.79551C25.1793 7.04539 24.531 6.49592 23.7423 6.14865C22.9567 5.79983 22.0723 5.62542 21.0876 5.62696C19.4346 5.62696 18.0918 6.14402 17.053 7.17041C16.0174 8.19989 15.4988 9.68006 15.4988 11.6094C15.4988 13.6668 16.0714 15.1531 17.2228 16.0653C18.3696 16.979 19.6939 17.4343 21.1972 17.4343C23.0169 17.4343 24.4323 16.8926 25.4432 15.8122C26.0899 15.13 26.4557 14.4586 26.536 13.7995H23.5232C23.3488 14.1252 23.1466 14.3799 22.915 14.5651C22.4952 14.9046 21.9488 15.0744 21.279 15.0744C20.6415 15.0744 20.1013 14.934 19.6507 14.6546C18.9067 14.207 18.5178 13.4229 18.4684 12.307H26.6903C26.7027 11.3454 26.6718 10.6061 26.5915 10.0968ZM18.5425 10.3854C18.6505 9.66153 18.9129 9.08737 19.3296 8.66292C19.7463 8.24002 20.3359 8.02702 21.0907 8.02548C21.7868 8.02548 22.3687 8.22459 22.8425 8.62434C23.3102 9.02718 23.5741 9.61214 23.6281 10.3854H18.5425Z" fill="#1D1D1D"/>
</g>
<defs>
<filter id="filter0_d" x="0" y="0" width="32.6929" height="23.4343" filterUnits="userSpaceOnUse" color-interpolation-filters="sRGB">
<feFlood flood-opacity="0" result="BackgroundImageFix"/>
<feColorMatrix in="SourceAlpha" type="matrix" values="0 0 0 0 0 0 0 0 0 0 0 0 0 0 0 0 0 0 127 0"/>
<feOffset dx="2" dy="2"/>
<feGaussianBlur stdDeviation="2"/>
<feColorMatrix type="matrix" values="0 0 0 0 0 0 0 0 0 0 0 0 0 0 0 0 0 0 0.04 0"/>
<feBlend mode="normal" in2="BackgroundImageFix" result="effect1_dropShadow"/>
<feBlend mode="normal" in="SourceGraphic" in2="effect1_dropShadow" result="shape"/>
</filter>
</defs>
</svg>
