<svg width="50" height="51" viewBox="0 0 50 51" fill="none" xmlns="http://www.w3.org/2000/svg">
<g filter="url(#filter0_d)">
<path d="M43.8933 15.0321C43.7948 12.8001 43.4339 11.2656 42.9168 9.9359C42.3834 8.52448 41.5628 7.26083 40.4876 6.21036C39.4372 5.14354 38.1652 4.31457 36.7701 3.78949C35.4327 3.27243 33.9062 2.91148 31.6742 2.81307C29.4255 2.70632 28.7116 2.68164 23.0082 2.68164C17.3048 2.68164 16.5909 2.70632 14.3505 2.80474C12.1185 2.90315 10.5839 3.26442 9.25458 3.78116C7.84283 4.31457 6.57919 5.1352 5.52872 6.21036C4.4619 7.26083 3.63325 8.53281 3.10785 9.92788C2.59079 11.2656 2.22984 12.7918 2.13143 15.0238C2.02468 17.2725 2 17.9864 2 23.6898C2 29.3932 2.02468 30.1071 2.12309 32.3475C2.22151 34.5795 2.58278 36.1141 3.09984 37.4437C3.63325 38.8552 4.4619 40.1188 5.52872 41.1693C6.57919 42.2361 7.85117 43.0651 9.24624 43.5901C10.5839 44.1072 12.1101 44.4681 14.3425 44.5666C16.5826 44.6653 17.2968 44.6897 23.0002 44.6897C28.7036 44.6897 29.4174 44.6653 31.6578 44.5666C33.8899 44.4681 35.4244 44.1072 36.7538 43.5901C39.5769 42.4986 41.809 40.2666 42.9005 37.4437C43.4172 36.106 43.7785 34.5795 43.8769 32.3475C43.9753 30.1071 44 29.3932 44 23.6898C44 17.9864 43.9917 17.2725 43.8933 15.0321ZM40.1103 32.1834C40.0199 34.2349 39.6753 35.3428 39.3881 36.0814C38.6822 37.9114 37.2298 39.3639 35.3997 40.0698C34.6611 40.357 33.5453 40.7016 31.5017 40.7917C29.286 40.8904 28.6215 40.9147 23.0165 40.9147C17.4115 40.9147 16.7387 40.8904 14.531 40.7917C12.4794 40.7016 11.3716 40.357 10.633 40.0698C9.72227 39.7332 8.89331 39.1998 8.22045 38.5022C7.52292 37.821 6.98951 37.0004 6.65292 36.0897C6.3657 35.3511 6.0211 34.2349 5.93102 32.1917C5.83229 29.976 5.80792 29.3111 5.80792 23.7062C5.80792 18.1012 5.83229 17.4283 5.93102 15.221C6.0211 13.1694 6.3657 12.0615 6.65292 11.323C6.98951 10.4119 7.52292 9.58328 8.22879 8.91011C8.90966 8.21257 9.73029 7.67916 10.6413 7.34289C11.3799 7.05567 12.4961 6.71107 14.5393 6.62067C16.755 6.52226 17.4199 6.49758 23.0245 6.49758C28.6378 6.49758 29.3024 6.52226 31.51 6.62067C33.5616 6.71107 34.6695 7.05567 35.4081 7.34289C36.3188 7.67916 37.1477 8.21257 37.8206 8.91011C38.5181 9.5913 39.0515 10.4119 39.3881 11.323C39.6753 12.0615 40.0199 13.1774 40.1103 15.221C40.2087 17.4367 40.2334 18.1012 40.2334 23.7062C40.2334 29.3111 40.2087 29.9676 40.1103 32.1834Z" fill="#1D1D1D"/>
<path d="M23.0076 12.8989C17.05 12.8989 12.2163 17.7323 12.2163 23.6902C12.2163 29.6481 17.05 34.4815 23.0076 34.4815C28.9655 34.4815 33.7989 29.6481 33.7989 23.6902C33.7989 17.7323 28.9655 12.8989 23.0076 12.8989ZM23.0076 30.6903C19.1426 30.6903 16.0076 27.5555 16.0076 23.6902C16.0076 19.8249 19.1426 16.6902 23.0076 16.6902C26.8729 16.6902 30.0077 19.8249 30.0077 23.6902C30.0077 27.5555 26.8729 30.6903 23.0076 30.6903V30.6903Z" fill="#1D1D1D"/>
<path d="M36.7454 12.4719C36.7454 13.8631 35.6174 14.9912 34.2258 14.9912C32.8346 14.9912 31.7065 13.8631 31.7065 12.4719C31.7065 11.0804 32.8346 9.95264 34.2258 9.95264C35.6174 9.95264 36.7454 11.0804 36.7454 12.4719V12.4719Z" fill="#1D1D1D"/>
</g>
<defs>
<filter id="filter0_d" x="0" y="0.681641" width="50" height="50.008" filterUnits="userSpaceOnUse" color-interpolation-filters="sRGB">
<feFlood flood-opacity="0" result="BackgroundImageFix"/>
<feColorMatrix in="SourceAlpha" type="matrix" values="0 0 0 0 0 0 0 0 0 0 0 0 0 0 0 0 0 0 127 0"/>
<feOffset dx="2" dy="2"/>
<feGaussianBlur stdDeviation="2"/>
<feColorMatrix type="matrix" values="0 0 0 0 0 0 0 0 0 0 0 0 0 0 0 0 0 0 0.04 0"/>
<feBlend mode="normal" in2="BackgroundImageFix" result="effect1_dropShadow"/>
<feBlend mode="normal" in="SourceGraphic" in2="effect1_dropShadow" result="shape"/>
</filter>
</defs>
</svg>
