<svg width="27" height="27" viewBox="0 0 27 27" fill="none" xmlns="http://www.w3.org/2000/svg">
<g filter="url(#filter0_d)">
<path d="M20.3804 7.41871C20.3372 6.43941 20.1789 5.76615 19.952 5.18276C19.718 4.56351 19.3579 4.00909 18.8862 3.5482C18.4253 3.08014 17.8673 2.71644 17.2552 2.48606C16.6684 2.25921 15.9987 2.10084 15.0194 2.05766C14.0328 2.01083 13.7195 2 11.2172 2C8.71488 2 8.40167 2.01083 7.41871 2.05401C6.43941 2.09718 5.76615 2.25569 5.1829 2.48241C4.56351 2.71644 4.00909 3.07649 3.5482 3.5482C3.08014 4.00909 2.71658 4.56717 2.48606 5.17925C2.25921 5.76615 2.10084 6.43575 2.05766 7.41506C2.01083 8.40167 2 8.71488 2 11.2172C2 13.7195 2.01083 14.0328 2.05401 15.0157C2.09718 15.995 2.25569 16.6683 2.48255 17.2517C2.71658 17.8709 3.08014 18.4253 3.5482 18.8862C4.00909 19.3543 4.56717 19.718 5.17925 19.9484C5.76615 20.1752 6.43575 20.3336 7.4152 20.3768C8.39801 20.4201 8.71137 20.4308 11.2137 20.4308C13.716 20.4308 14.0292 20.4201 15.0122 20.3768C15.9915 20.3336 16.6648 20.1752 17.248 19.9484C18.4867 19.4695 19.466 18.4902 19.9448 17.2517C20.1716 16.6648 20.3301 15.995 20.3732 15.0157C20.4164 14.0328 20.4272 13.7195 20.4272 11.2172C20.4272 8.71488 20.4236 8.40167 20.3804 7.41871ZM18.7207 14.9437C18.681 15.8438 18.5298 16.3299 18.4038 16.6539C18.0941 17.4569 17.4569 18.0941 16.6539 18.4038C16.3299 18.5298 15.8403 18.681 14.9437 18.7205C13.9716 18.7639 13.68 18.7745 11.2209 18.7745C8.76172 18.7745 8.46651 18.7639 7.49789 18.7205C6.59778 18.681 6.11171 18.5298 5.78767 18.4038C5.3881 18.2561 5.0244 18.0221 4.72919 17.7161C4.42315 17.4172 4.18912 17.0571 4.04144 16.6576C3.91542 16.3335 3.76423 15.8438 3.72471 14.9474C3.68139 13.9752 3.6707 13.6835 3.6707 11.2244C3.6707 8.76523 3.68139 8.47002 3.72471 7.50155C3.76423 6.60143 3.91542 6.11537 4.04144 5.79133C4.18912 5.39162 4.42315 5.02805 4.73284 4.7327C5.03157 4.42666 5.39162 4.19263 5.79133 4.0451C6.11537 3.91908 6.60509 3.76789 7.50155 3.72823C8.47368 3.68505 8.76537 3.67422 11.2244 3.67422C13.6872 3.67422 13.9787 3.68505 14.9474 3.72823C15.8475 3.76789 16.3335 3.91908 16.6576 4.0451C17.0571 4.19263 17.4209 4.42666 17.7161 4.7327C18.0221 5.03157 18.2561 5.39162 18.4038 5.79133C18.5298 6.11537 18.681 6.60495 18.7207 7.50155C18.7639 8.47368 18.7747 8.76523 18.7747 11.2244C18.7747 13.6835 18.7639 13.9716 18.7207 14.9437Z" fill="#1D1D1D"/>
<path d="M11.217 6.48242C8.60318 6.48242 6.48242 8.60304 6.48242 11.217C6.48242 13.831 8.60318 15.9517 11.217 15.9517C13.831 15.9517 15.9517 13.831 15.9517 11.217C15.9517 8.60304 13.831 6.48242 11.217 6.48242ZM11.217 14.2883C9.52131 14.2883 8.14581 12.9129 8.14581 11.217C8.14581 9.52116 9.52131 8.14581 11.217 8.14581C12.9129 8.14581 14.2883 9.52116 14.2883 11.217C14.2883 12.9129 12.9129 14.2883 11.217 14.2883Z" fill="#1D1D1D"/>
<path d="M17.2447 6.29526C17.2447 6.90565 16.7498 7.40058 16.1393 7.40058C15.5289 7.40058 15.0339 6.90565 15.0339 6.29526C15.0339 5.68473 15.5289 5.18994 16.1393 5.18994C16.7498 5.18994 17.2447 5.68473 17.2447 6.29526Z" fill="#1D1D1D"/>
</g>
<defs>
<filter id="filter0_d" x="0" y="0" width="26.4272" height="26.4308" filterUnits="userSpaceOnUse" color-interpolation-filters="sRGB">
<feFlood flood-opacity="0" result="BackgroundImageFix"/>
<feColorMatrix in="SourceAlpha" type="matrix" values="0 0 0 0 0 0 0 0 0 0 0 0 0 0 0 0 0 0 127 0"/>
<feOffset dx="2" dy="2"/>
<feGaussianBlur stdDeviation="2"/>
<feColorMatrix type="matrix" values="0 0 0 0 0 0 0 0 0 0 0 0 0 0 0 0 0 0 0.04 0"/>
<feBlend mode="normal" in2="BackgroundImageFix" result="effect1_dropShadow"/>
<feBlend mode="normal" in="SourceGraphic" in2="effect1_dropShadow" result="shape"/>
</filter>
</defs>
</svg>
