<svg width="52" height="52" viewBox="0 0 52 52" fill="none" xmlns="http://www.w3.org/2000/svg">
<g filter="url(#filter0_d)">
<path d="M45.8892 45.9015V45.8997H45.9001V29.799C45.9001 21.9225 44.2045 15.855 34.9962 15.855C30.5696 15.855 27.5989 18.2842 26.3862 20.5871H26.2581V16.5903H17.5273V45.8997H26.6185V31.3868C26.6185 27.5656 27.3429 23.8706 32.075 23.8706C36.7377 23.8706 36.8072 28.2314 36.8072 31.6319V45.9015H45.8892Z" fill="#1D1D1D"/>
<path d="M2.72461 16.5923H11.8267V45.9016H2.72461V16.5923Z" fill="#1D1D1D"/>
<path d="M7.27177 2C4.3615 2 2 4.3615 2 7.27177C2 10.182 4.3615 12.5929 7.27177 12.5929C10.182 12.5929 12.5435 10.182 12.5435 7.27177C12.5417 4.3615 10.1802 2 7.27177 2V2Z" fill="#1D1D1D"/>
</g>
<defs>
<filter id="filter0_d" x="0" y="0" width="51.9001" height="51.9016" filterUnits="userSpaceOnUse" color-interpolation-filters="sRGB">
<feFlood flood-opacity="0" result="BackgroundImageFix"/>
<feColorMatrix in="SourceAlpha" type="matrix" values="0 0 0 0 0 0 0 0 0 0 0 0 0 0 0 0 0 0 127 0"/>
<feOffset dx="2" dy="2"/>
<feGaussianBlur stdDeviation="2"/>
<feColorMatrix type="matrix" values="0 0 0 0 0 0 0 0 0 0 0 0 0 0 0 0 0 0 0.04 0"/>
<feBlend mode="normal" in2="BackgroundImageFix" result="effect1_dropShadow"/>
<feBlend mode="normal" in="SourceGraphic" in2="effect1_dropShadow" result="shape"/>
</filter>
</defs>
</svg>
