<svg width="27" height="27" viewBox="0 0 27 27" fill="none" xmlns="http://www.w3.org/2000/svg">
<g filter="url(#filter0_d)">
<path d="M20.5151 20.52V20.5192H20.5197V13.7271C20.5197 10.4043 19.8044 7.84473 15.9199 7.84473C14.0525 7.84473 12.7993 8.86949 12.2877 9.84101H12.2337V8.15493H8.55054V20.5192H12.3857V14.3969C12.3857 12.7849 12.6913 11.2261 14.6875 11.2261C16.6545 11.2261 16.6838 13.0658 16.6838 14.5003V20.52H20.5151Z" fill="#1D1D1D"/>
<path d="M2.30566 8.15576H6.14544V20.5201H2.30566V8.15576Z" fill="#1D1D1D"/>
<path d="M4.22392 2C2.99621 2 2 2.99621 2 4.22392C2 5.45163 2.99621 6.46868 4.22392 6.46868C5.45163 6.46868 6.44784 5.45163 6.44784 4.22392C6.44707 2.99621 5.45086 2 4.22392 2V2Z" fill="#1D1D1D"/>
</g>
<defs>
<filter id="filter0_d" x="0" y="0" width="26.5197" height="26.5201" filterUnits="userSpaceOnUse" color-interpolation-filters="sRGB">
<feFlood flood-opacity="0" result="BackgroundImageFix"/>
<feColorMatrix in="SourceAlpha" type="matrix" values="0 0 0 0 0 0 0 0 0 0 0 0 0 0 0 0 0 0 127 0"/>
<feOffset dx="2" dy="2"/>
<feGaussianBlur stdDeviation="2"/>
<feColorMatrix type="matrix" values="0 0 0 0 0 0 0 0 0 0 0 0 0 0 0 0 0 0 0.04 0"/>
<feBlend mode="normal" in2="BackgroundImageFix" result="effect1_dropShadow"/>
<feBlend mode="normal" in="SourceGraphic" in2="effect1_dropShadow" result="shape"/>
</filter>
</defs>
</svg>
