<svg width="100" height="19" viewBox="0 0 100 19" fill="none" xmlns="http://www.w3.org/2000/svg">
<path d="M5.688 4.1C6.72 4.1 7.596 4.352 8.316 4.856C9.036 5.348 9.54 5.984 9.828 6.764V4.226H10.638V14.306C10.638 15.206 10.44 15.992 10.044 16.664C9.648 17.348 9.114 17.87 8.442 18.23C7.77 18.602 7.02 18.788 6.192 18.788C4.968 18.788 3.954 18.494 3.15 17.906C2.346 17.318 1.818 16.526 1.566 15.53H2.376C2.616 16.31 3.066 16.928 3.726 17.384C4.386 17.852 5.208 18.086 6.192 18.086C6.876 18.086 7.494 17.93 8.046 17.618C8.598 17.318 9.03 16.88 9.342 16.304C9.666 15.74 9.828 15.074 9.828 14.306V11.444C9.54 12.224 9.03 12.872 8.298 13.388C7.578 13.892 6.708 14.144 5.688 14.144C4.776 14.144 3.96 13.94 3.24 13.532C2.532 13.112 1.974 12.524 1.566 11.768C1.17 11 0.972 10.112 0.972 9.104C0.972 8.096 1.17 7.214 1.566 6.458C1.974 5.702 2.532 5.12 3.24 4.712C3.96 4.304 4.776 4.1 5.688 4.1ZM9.828 9.104C9.828 8.252 9.648 7.502 9.288 6.854C8.94 6.194 8.46 5.69 7.848 5.342C7.236 4.982 6.552 4.802 5.796 4.802C5.004 4.802 4.308 4.976 3.708 5.324C3.108 5.66 2.64 6.152 2.304 6.8C1.968 7.448 1.8 8.216 1.8 9.104C1.8 9.992 1.968 10.76 2.304 11.408C2.64 12.056 3.108 12.554 3.708 12.902C4.32 13.25 5.016 13.424 5.796 13.424C6.552 13.424 7.236 13.25 7.848 12.902C8.472 12.542 8.958 12.038 9.306 11.39C9.654 10.73 9.828 9.968 9.828 9.104ZM22.0293 4.226V14H21.2193V11.876C20.9433 12.62 20.4813 13.19 19.8333 13.586C19.1973 13.97 18.4653 14.162 17.6373 14.162C16.4733 14.162 15.5193 13.808 14.7753 13.1C14.0433 12.38 13.6773 11.318 13.6773 9.914V4.226H14.4693V9.86C14.4693 11.024 14.7633 11.918 15.3513 12.542C15.9393 13.154 16.7373 13.46 17.7453 13.46C18.8013 13.46 19.6413 13.124 20.2653 12.452C20.9013 11.78 21.2193 10.784 21.2193 9.464V4.226H22.0293ZM25.5762 2.048C25.3842 2.048 25.2222 1.988 25.0902 1.868C24.9582 1.736 24.8922 1.562 24.8922 1.346C24.8922 1.142 24.9582 0.974 25.0902 0.842C25.2222 0.709999 25.3842 0.643999 25.5762 0.643999C25.7682 0.643999 25.9302 0.709999 26.0622 0.842C26.1942 0.974 26.2602 1.142 26.2602 1.346C26.2602 1.562 26.1942 1.736 26.0622 1.868C25.9302 1.988 25.7682 2.048 25.5762 2.048ZM25.9722 4.226V14H25.1622V4.226H25.9722ZM36.0263 5.54C36.3743 5.084 36.8483 4.7 37.4483 4.388C38.0483 4.076 38.7263 3.92 39.4823 3.92C40.3463 3.92 41.1323 4.136 41.8403 4.568C42.5603 4.988 43.1243 5.582 43.5323 6.35C43.9403 7.118 44.1443 8 44.1443 8.996C44.1443 9.992 43.9403 10.886 43.5323 11.678C43.1243 12.458 42.5603 13.07 41.8403 13.514C41.1323 13.946 40.3463 14.162 39.4823 14.162C38.7263 14.162 38.0543 14.012 37.4663 13.712C36.8783 13.4 36.3983 13.016 36.0263 12.56V18.716H33.9743V4.082H36.0263V5.54ZM42.0563 8.996C42.0563 8.312 41.9123 7.724 41.6243 7.232C41.3483 6.728 40.9763 6.35 40.5083 6.098C40.0523 5.834 39.5603 5.702 39.0323 5.702C38.5163 5.702 38.0243 5.834 37.5563 6.098C37.1003 6.362 36.7283 6.746 36.4403 7.25C36.1643 7.754 36.0263 8.348 36.0263 9.032C36.0263 9.716 36.1643 10.316 36.4403 10.832C36.7283 11.336 37.1003 11.72 37.5563 11.984C38.0243 12.248 38.5163 12.38 39.0323 12.38C39.5603 12.38 40.0523 12.248 40.5083 11.984C40.9763 11.708 41.3483 11.312 41.6243 10.796C41.9123 10.28 42.0563 9.68 42.0563 8.996ZM48.4055 5.522C48.7055 5.018 49.1015 4.628 49.5935 4.352C50.0975 4.064 50.6915 3.92 51.3755 3.92V6.044H50.8535C50.0495 6.044 49.4375 6.248 49.0175 6.656C48.6095 7.064 48.4055 7.772 48.4055 8.78V14H46.3535V4.082H48.4055V5.522ZM52.7577 8.996C52.7577 8 52.9617 7.118 53.3697 6.35C53.7897 5.582 54.3537 4.988 55.0617 4.568C55.7817 4.136 56.5737 3.92 57.4377 3.92C58.2177 3.92 58.8957 4.076 59.4717 4.388C60.0597 4.688 60.5277 5.066 60.8757 5.522V4.082H62.9457V14H60.8757V12.524C60.5277 12.992 60.0537 13.382 59.4537 13.694C58.8537 14.006 58.1697 14.162 57.4017 14.162C56.5497 14.162 55.7697 13.946 55.0617 13.514C54.3537 13.07 53.7897 12.458 53.3697 11.678C52.9617 10.886 52.7577 9.992 52.7577 8.996ZM60.8757 9.032C60.8757 8.348 60.7317 7.754 60.4437 7.25C60.1677 6.746 59.8017 6.362 59.3457 6.098C58.8897 5.834 58.3977 5.702 57.8697 5.702C57.3417 5.702 56.8497 5.834 56.3937 6.098C55.9377 6.35 55.5657 6.728 55.2777 7.232C55.0017 7.724 54.8637 8.312 54.8637 8.996C54.8637 9.68 55.0017 10.28 55.2777 10.796C55.5657 11.312 55.9377 11.708 56.3937 11.984C56.8617 12.248 57.3537 12.38 57.8697 12.38C58.3977 12.38 58.8897 12.248 59.3457 11.984C59.8017 11.72 60.1677 11.336 60.4437 10.832C60.7317 10.316 60.8757 9.716 60.8757 9.032ZM70.8249 3.92C71.6049 3.92 72.3009 4.082 72.9129 4.406C73.5369 4.73 74.0229 5.21 74.3709 5.846C74.7189 6.482 74.8929 7.25 74.8929 8.15V14H72.8589V8.456C72.8589 7.568 72.6369 6.89 72.1929 6.422C71.7489 5.942 71.1429 5.702 70.3749 5.702C69.6069 5.702 68.9949 5.942 68.5389 6.422C68.0949 6.89 67.8729 7.568 67.8729 8.456V14H65.8209V4.082H67.8729V5.216C68.2089 4.808 68.6349 4.49 69.1509 4.262C69.6789 4.034 70.2369 3.92 70.8249 3.92ZM77.0064 8.996C77.0064 8 77.2104 7.118 77.6184 6.35C78.0384 5.582 78.6024 4.988 79.3104 4.568C80.0304 4.136 80.8284 3.92 81.7044 3.92C82.3524 3.92 82.9884 4.064 83.6124 4.352C84.2484 4.628 84.7524 5 85.1244 5.468V0.68H87.1944V14H85.1244V12.506C84.7884 12.986 84.3204 13.382 83.7204 13.694C83.1324 14.006 82.4544 14.162 81.6864 14.162C80.8224 14.162 80.0304 13.946 79.3104 13.514C78.6024 13.07 78.0384 12.458 77.6184 11.678C77.2104 10.886 77.0064 9.992 77.0064 8.996ZM85.1244 9.032C85.1244 8.348 84.9804 7.754 84.6924 7.25C84.4164 6.746 84.0504 6.362 83.5944 6.098C83.1384 5.834 82.6464 5.702 82.1184 5.702C81.5904 5.702 81.0984 5.834 80.6424 6.098C80.1864 6.35 79.8144 6.728 79.5264 7.232C79.2504 7.724 79.1124 8.312 79.1124 8.996C79.1124 9.68 79.2504 10.28 79.5264 10.796C79.8144 11.312 80.1864 11.708 80.6424 11.984C81.1104 12.248 81.6024 12.38 82.1184 12.38C82.6464 12.38 83.1384 12.248 83.5944 11.984C84.0504 11.72 84.4164 11.336 84.6924 10.832C84.9804 10.316 85.1244 9.716 85.1244 9.032ZM94.3716 14.162C93.4356 14.162 92.5896 13.952 91.8336 13.532C91.0776 13.1 90.4836 12.5 90.0516 11.732C89.6196 10.952 89.4036 10.052 89.4036 9.032C89.4036 8.024 89.6256 7.13 90.0696 6.35C90.5136 5.57 91.1196 4.97 91.8876 4.55C92.6556 4.13 93.5136 3.92 94.4616 3.92C95.4096 3.92 96.2676 4.13 97.0356 4.55C97.8036 4.97 98.4096 5.57 98.8536 6.35C99.2976 7.13 99.5196 8.024 99.5196 9.032C99.5196 10.04 99.2916 10.934 98.8356 11.714C98.3796 12.494 97.7556 13.1 96.9636 13.532C96.1836 13.952 95.3196 14.162 94.3716 14.162ZM94.3716 12.38C94.8996 12.38 95.3916 12.254 95.8476 12.002C96.3156 11.75 96.6936 11.372 96.9816 10.868C97.2696 10.364 97.4136 9.752 97.4136 9.032C97.4136 8.312 97.2756 7.706 96.9996 7.214C96.7236 6.71 96.3576 6.332 95.9016 6.08C95.4456 5.828 94.9536 5.702 94.4256 5.702C93.8976 5.702 93.4056 5.828 92.9496 6.08C92.5056 6.332 92.1516 6.71 91.8876 7.214C91.6236 7.706 91.4916 8.312 91.4916 9.032C91.4916 10.1 91.7616 10.928 92.3016 11.516C92.8536 12.092 93.5436 12.38 94.3716 12.38Z" fill="#1D1D1D"/>
</svg>
