<svg width="26" height="26" viewBox="0 0 26 26" fill="none" xmlns="http://www.w3.org/2000/svg">
<path d="M24.4065 14.0632C24.8869 13.5837 25.1518 12.9459 25.1521 12.2671C25.1525 11.5883 24.8883 10.9502 24.4084 10.4702C24.1639 10.2257 23.8811 10.0419 23.579 9.91828L24.6216 8.8796C25.1031 8.40034 25.3688 7.76227 25.3696 7.08286C25.3703 6.40344 25.1063 5.7647 24.6259 5.28429L24.5989 5.2573C24.2282 4.88659 23.7699 4.65476 23.2897 4.56186C23.3188 4.40748 23.3343 4.24941 23.3344 4.08884C23.3352 3.40953 23.0711 2.77084 22.5907 2.29054L22.5576 2.2574C22.078 1.77778 21.4403 1.51365 20.7621 1.51365C20.3041 1.51365 19.8649 1.63448 19.4802 1.86032C19.3549 1.52108 19.1571 1.20999 18.8941 0.946999L18.8722 0.925049C17.8822 -0.0647907 16.2713 -0.0649466 15.2812 0.925101L8.49559 7.71078L9.33844 4.23011C9.67144 2.85485 8.91998 1.45248 7.59049 0.968013C6.84231 0.695352 6.01205 0.757457 5.31266 1.13815C4.61327 1.51885 4.1105 2.18245 3.93323 2.95882L3.81765 3.46524C3.26484 5.88678 2.35105 8.32018 1.10166 10.6977C0.165445 12.4792 -0.191115 14.5626 0.09767 16.5642C0.396442 18.6353 1.33848 20.5141 2.82199 21.9976C4.64302 23.8187 7.06337 24.8213 9.63846 24.8212H9.64501C12.2224 24.8195 14.6443 23.8135 16.4644 21.9885L18.4071 20.0407L24.4065 14.0632ZM15.3596 20.8866C13.8341 22.4161 11.8042 23.2593 9.64403 23.2607H9.63851C7.48037 23.2607 5.45159 22.4204 3.92538 20.8942C2.68191 19.6508 1.89238 18.0764 1.64209 16.3415C1.39991 14.6628 1.69858 12.9162 2.48301 11.4235C3.79524 8.92652 4.75616 6.36578 5.33898 3.81249L5.45456 3.30612C5.53331 2.96111 5.74787 2.67794 6.05871 2.50874C6.36955 2.33954 6.72392 2.31311 7.05635 2.4342C7.6386 2.64637 7.96775 3.26056 7.8219 3.86289L6.32544 10.0424C6.14791 10.6794 6.96855 11.3889 7.63543 10.7777L16.3846 2.02854C16.7662 1.6468 17.3872 1.64691 17.7682 2.02781L17.7901 2.04971C17.975 2.23462 18.0767 2.48034 18.0767 2.74182C18.0767 3.00329 17.9749 3.24906 17.7901 3.43398C16.366 4.85803 13.8116 7.41237 12.4138 8.81027C12.1091 9.11492 12.1091 9.60895 12.4138 9.91365C12.7185 10.2184 13.2125 10.2184 13.5171 9.91365C14.3808 9.04995 19.3429 4.0879 20.0701 3.36084C20.2549 3.17593 20.5007 3.07414 20.7622 3.07414C21.0236 3.07414 21.2694 3.17593 21.4543 3.36084L21.4875 3.39398C21.6726 3.57915 21.7744 3.82534 21.7742 4.08718C21.7738 4.34902 21.6715 4.595 21.4858 4.77986C19.5295 6.72838 16.8539 9.39236 14.9173 11.3224C14.612 11.6265 14.6111 12.1205 14.9151 12.4259C15.0676 12.5789 15.2677 12.6555 15.4679 12.6555C15.6671 12.6555 15.8663 12.5797 16.0185 12.428C17.3203 11.1313 20.8672 7.59812 22.1129 6.35907C22.4946 5.97931 23.1148 5.98004 23.4955 6.36069L23.5225 6.38768C23.7077 6.57291 23.8095 6.81909 23.8092 7.08099C23.8089 7.34288 23.7064 7.58886 23.5206 7.77382C21.6229 9.66398 18.6176 12.6571 16.7366 14.5323C16.4314 14.8365 16.4304 15.3305 16.7346 15.6357C16.887 15.7887 17.0871 15.8653 17.2873 15.8653C17.4864 15.8653 17.6857 15.7894 17.8379 15.6378L21.4156 12.0736L21.9243 11.5701C22.306 11.1923 22.9253 11.194 23.305 11.5736C23.49 11.7586 23.5918 12.0046 23.5917 12.2662C23.5915 12.5279 23.4894 12.7738 23.3046 12.9582L17.304 18.937L15.3596 20.8866Z" fill="black"/>
<path d="M23.4652 19.4796C23.6348 19.0835 23.4511 18.6248 23.055 18.4553C22.6589 18.2856 22.2003 18.4693 22.0307 18.8655C21.7689 19.4769 21.3954 20.0277 20.9204 20.5027C20.34 21.083 19.6543 21.5078 18.8822 21.7654C18.4734 21.9017 18.2526 22.3435 18.3889 22.7524C18.4979 23.0792 18.8023 23.2859 19.129 23.2859C19.2108 23.2859 19.294 23.273 19.376 23.2457C20.3798 22.9108 21.2707 22.3593 22.0238 21.6061C22.6399 20.9899 23.1249 20.2745 23.4652 19.4796Z" fill="black"/>
<path d="M25.5269 19.9095C25.1308 19.7397 24.6721 19.9231 24.5023 20.3192C24.1378 21.1696 23.6179 21.9357 22.9573 22.5964C22.1889 23.3647 21.2851 23.9387 20.271 24.3023C19.8654 24.4477 19.6545 24.8944 19.7999 25.3001C19.9141 25.6187 20.2143 25.8171 20.5344 25.8171C20.6218 25.8171 20.7107 25.8024 20.7977 25.7712C22.0303 25.3292 23.1282 24.6323 24.0607 23.6998C24.8623 22.8982 25.4934 21.9676 25.9365 20.934C26.1063 20.538 25.9229 20.0793 25.5269 19.9095Z" fill="black"/>
</svg>
